<?xml version="1.0" standalone="no"?>
<!DOCTYPE svg PUBLIC "-//W3C//DTD SVG 20010904//EN"
 "http://www.w3.org/TR/2001/REC-SVG-20010904/DTD/svg10.dtd">
<svg version="1.0" xmlns="http://www.w3.org/2000/svg"
 width="512.000000pt" height="512.000000pt" viewBox="0 0 512.000000 512.000000"
 preserveAspectRatio="xMidYMid meet">
<metadata>
Created by potrace 1.14, written by Peter Selinger 2001-2017
</metadata>
<g transform="translate(0.000000,512.000000) scale(0.100000,-0.100000)"
fill="#000000" stroke="none">
<path d="M3365 5100 c-22 -5 -54 -11 -71 -14 -43 -8 -162 -57 -218 -90 -53
-31 -70 -57 -64 -97 4 -24 -5 -36 -63 -89 -37 -33 -71 -56 -74 -50 -9 14 -67
12 -85 -3 -23 -18 -113 -128 -139 -170 -30 -48 -34 -119 -11 -173 l19 -42 -47
-22 c-113 -53 -191 -119 -474 -401 -295 -295 -354 -366 -384 -463 -25 -81 -28
-105 -27 -197 1 -140 50 -265 146 -368 20 -22 37 -42 37 -44 0 -1 -109 -3
-241 -3 l-242 0 -23 -28 c-29 -33 -31 -66 -5 -97 17 -21 27 -23 131 -25 61 -2
113 -4 114 -6 2 -2 44 -76 95 -165 l92 -162 -102 -158 c-56 -87 -107 -164
-114 -172 -11 -11 -26 -7 -91 22 -75 33 -169 64 -224 73 -14 3 -32 7 -40 10
-8 4 -71 8 -140 9 -367 10 -689 -148 -910 -446 -100 -134 -173 -312 -199 -484
-8 -56 -7 -260 2 -315 22 -138 81 -296 150 -405 34 -53 39 -60 100 -134 128
-153 319 -277 517 -334 117 -34 147 -39 280 -42 541 -14 1016 383 1094 915
l12 85 260 3 c292 3 275 -2 321 82 29 52 125 221 145 255 10 17 31 55 48 85
17 30 40 71 51 90 12 19 91 159 177 310 213 373 209 367 214 360 19 -25 86
-175 82 -181 -3 -5 -28 -24 -55 -43 -86 -58 -200 -174 -266 -271 -87 -129
-162 -316 -180 -452 -9 -72 -9 -241 0 -308 31 -223 153 -463 314 -620 217
-212 491 -319 793 -310 63 2 126 6 140 9 60 13 80 17 82 17 16 -6 230 84 305
127 116 68 255 202 337 326 55 82 129 235 140 288 3 13 12 57 22 98 32 145 25
360 -17 505 -138 479 -574 801 -1067 790 -59 -2 -125 -6 -147 -9 -55 -10 -178
-44 -221 -62 -20 -8 -37 -14 -38 -12 -1 2 -42 82 -90 178 -49 96 -93 181 -99
188 -13 17 0 15 63 -9 104 -40 236 -25 314 35 70 53 100 95 129 179 5 14 18
17 70 17 81 0 117 23 117 75 0 55 -30 75 -114 75 l-71 0 -24 56 c-27 63 -93
133 -154 162 -49 24 -40 20 -348 147 l-236 97 4 221 c5 261 6 283 19 279 5 -1
43 -14 84 -29 151 -53 334 -41 484 32 191 93 317 264 356 480 5 33 17 63 25
68 38 21 90 91 103 137 14 54 5 138 -23 200 -103 231 -277 360 -560 416 -50 9
-247 12 -290 4z m-1161 -2512 c75 -75 136 -138 136 -140 0 -2 -82 -3 -182 -3
l-183 1 -77 134 c-42 74 -73 137 -68 140 4 3 60 5 124 4 l115 -1 135 -135z
m1017 -79 c16 -32 29 -60 29 -61 0 -2 -62 -3 -137 -3 l-138 1 4 34 c8 67 7 85
-5 127 -6 23 -10 44 -8 46 3 2 54 -16 115 -41 l110 -45 30 -58z m-917 -219 c2
-3 -7 -50 -20 -105 -13 -55 -27 -116 -30 -135 -11 -63 -19 -64 -49 -8 -16 29
-54 97 -86 150 -45 76 -54 98 -41 100 26 5 220 3 226 -2z m928 -25 c-12 -24
-166 -296 -324 -575 -33 -57 -150 -263 -168 -295 -9 -16 -32 -56 -50 -88 l-33
-58 -18 31 -19 31 40 38 c22 20 51 62 64 92 14 30 66 229 116 443 50 215 95
395 100 400 5 7 65 11 158 11 l150 0 -16 -30z m-1178 -266 l133 -232 -18 -76
c-32 -132 -19 -228 42 -311 46 -62 142 -111 223 -115 33 -2 42 -7 62 -41 13
-21 24 -42 24 -46 0 -5 -80 -8 -178 -8 -136 0 -179 3 -179 13 -2 99 -52 276
-113 399 -60 121 -207 303 -287 355 -13 9 -23 20 -23 25 0 13 172 279 178 274
2 -3 63 -109 136 -237z m-835 -233 c40 -8 94 -25 122 -38 l49 -23 -73 -110
c-196 -296 -307 -479 -307 -505 0 -15 10 -36 23 -48 22 -21 29 -21 374 -22
193 -1 353 -4 356 -6 3 -3 0 -24 -5 -47 -5 -23 -11 -49 -13 -57 -16 -75 -103
-226 -167 -290 -125 -125 -277 -196 -445 -207 -391 -27 -720 271 -732 662 -7
261 128 496 359 623 54 29 161 68 210 74 69 10 185 7 249 -6z m2936 4 c91 -18
150 -40 219 -80 159 -91 286 -258 327 -430 17 -74 18 -84 19 -167 1 -176 -66
-340 -193 -477 -49 -52 -66 -98 -47 -121 11 -13 1 -22 -77 -69 -7 -4 -26 3
-43 15 -32 24 -32 24 -169 -15 -80 -22 -265 -16 -356 13 -216 69 -376 227
-451 446 -22 65 -28 101 -30 190 -3 161 30 275 117 406 40 59 166 182 182 176
5 -1 47 -77 94 -167 250 -485 240 -470 290 -470 30 0 73 42 73 72 0 24 -25 75
-213 439 l-107 207 27 7 c90 25 143 33 223 33 41 0 93 -4 115 -8z m-2581 -198
c57 -59 98 -118 132 -192 28 -59 65 -190 57 -202 -5 -9 -533 -11 -533 -2 0 11
283 444 290 444 4 0 29 -22 54 -48z"/>
</g>
</svg>
